<svg xmlns="http://www.w3.org/2000/svg" version="1.1" xmlns:xlink="http://www.w3.org/1999/xlink" xmlns:svgjs="http://svgjs.dev/svgjs" width="80" height="80"><svg width="80" height="80" viewBox="0 0 80 80" fill="none" xmlns="http://www.w3.org/2000/svg">
<path d="M12 2H68C73.5229 2 78 6.47715 78 12V68C78 73.5229 73.5229 78 68 78H12C6.47715 78 2 73.5229 2 68V12C2 6.47715 6.47715 2 12 2Z" fill="#FAFAFA"></path>
<path d="M12 2H68C73.5229 2 78 6.47715 78 12V68C78 73.5229 73.5229 78 68 78H12C6.47715 78 2 73.5229 2 68V12C2 6.47715 6.47715 2 12 2Z" stroke="#E2E8F0" stroke-width="4"></path>
<path d="M22.62 18.58V18.1H37.32C41.12 18.1 44.16 18.64 46.44 19.72C48.76 20.8 50.44 22.28 51.48 24.16C52.52 26 53.04 28.12 53.04 30.52C53.04 33.52 52.34 35.96 50.94 37.84C49.58 39.68 47.78 41.04 45.54 41.92C43.34 42.76 40.98 43.18 38.46 43.18H36.36V42.7H38.46C39.82 42.7 40.96 42.24 41.88 41.32C42.84 40.4 43.56 39.04 44.04 37.24C44.52 35.4 44.76 33.16 44.76 30.52C44.76 28.92 44.64 27.4 44.4 25.96C44.2 24.52 43.82 23.26 43.26 22.18C42.7 21.06 41.92 20.2 40.92 19.6C39.96 18.96 38.76 18.64 37.32 18.64H34.68V60.52H39V61H22.62V60.52H26.46V18.58H22.62ZM52.2623 61.6C51.2223 61.6 50.3023 61.2 49.5023 60.4C48.7423 59.6 48.3623 58.68 48.3623 57.64C48.3623 56.52 48.7423 55.58 49.5023 54.82C50.3023 54.06 51.2223 53.68 52.2623 53.68C53.3423 53.68 54.2623 54.06 55.0223 54.82C55.8223 55.58 56.2223 56.52 56.2223 57.64C56.2223 58.68 55.8223 59.6 55.0223 60.4C54.2623 61.2 53.3423 61.6 52.2623 61.6Z" fill="#0F172A"></path>
</svg><style>@media (prefers-color-scheme: light) { :root { filter: none; } }
@media (prefers-color-scheme: dark) { :root { filter: none; } }
</style></svg>